<?xml version="1.0" standalone="no"?><!DOCTYPE svg PUBLIC "-//W3C//DTD SVG 1.1//EN" "http://www.w3.org/Graphics/SVG/1.1/DTD/svg11.dtd"><svg t="1510402040340" class="icon" style="" viewBox="0 0 1024 1024" version="1.1" xmlns="http://www.w3.org/2000/svg" p-id="1909" xmlns:xlink="http://www.w3.org/1999/xlink" width="200" height="200"><defs><style type="text/css"></style></defs><path d="M570.0078125 728.2109375c-47.4609375 26.3671875-79.1015625 26.3671875-116.015625 5.2734375C417.078125 717.6640625 90.125 580.5546875 90.125 580.5546875v100.1953125c0 10.546875 10.546875 15.8203125 31.640625 26.3671875 42.1875 21.09375 295.3125 121.2890625 332.2265625 142.3828125 36.9140625 21.09375 68.5546875 21.09375 116.015625-5.2734375 47.4609375-26.3671875 284.765625-121.2890625 326.953125-147.65625 21.09375-10.546875 31.640625-21.09375 31.640625-31.640625V570.0078125c5.2734375 0-305.859375 137.109375-358.59375 158.203125z m0 0" p-id="1910" fill="#ffffff"></path><path d="M570.0078125 591.1015625c-47.4609375 26.3671875-73.828125 26.3671875-116.015625 5.2734375C417.078125 580.5546875 90.125 443.4453125 90.125 443.4453125v100.1953125c0 10.546875 10.546875 15.8203125 31.640625 26.3671875 42.1875 21.09375 295.3125 121.2890625 332.2265625 142.3828125 36.9140625 21.09375 68.5546875 21.09375 116.015625-5.2734375 47.4609375-26.3671875 284.765625-121.2890625 326.953125-147.65625 26.3671875-10.546875 36.9140625-21.09375 36.9140625-31.640625V432.8984375s-311.1328125 131.8359375-363.8671875 158.203125z m0 0" p-id="1911" fill="#ffffff"></path><path d="M933.875 301.0625c0-10.546875-10.546875-15.8203125-31.640625-26.3671875-42.1875-15.8203125-274.21875-110.7421875-321.6796875-126.5625-47.4609375-10.546875-63.28125-10.546875-116.015625 5.2734375-52.734375 21.09375-300.5859375 116.015625-342.7734375 131.8359375-21.09375 10.546875-31.640625 21.09375-31.640625 26.3671875V406.53125s326.953125 137.109375 363.8671875 158.203125c36.9140625 21.09375 68.5546875 21.09375 116.015625-5.2734375 52.734375-26.3671875 363.8671875-163.4765625 363.8671875-163.4765625V301.0625z m-110.7421875 0l-126.5625 52.734375-116.015625-47.4609375 126.5625-52.734375 116.015625 47.4609375zM585.828125 353.796875L527.8203125 438.171875 390.7109375 380.1640625 585.828125 353.796875zM485.6328125 221.9609375l-21.09375-36.9140625 58.0078125 21.09375 58.0078125-15.8203125-15.8203125 36.9140625 58.0078125 21.09375-73.828125 5.2734375-15.8203125 42.1875-26.3671875-47.4609375-84.375-5.2734375 63.28125-21.09375z m-147.65625 47.4609375c58.0078125 0 105.46875 15.8203125 105.46875 42.1875 0 21.09375-47.4609375 42.1875-105.46875 42.1875s-105.46875-15.8203125-105.46875-42.1875 47.4609375-42.1875 105.46875-42.1875z m0 0" p-id="1912" fill="#ffffff"></path></svg>